inDegrees=no
DataType=double
version=3
OpenSimVersion=4.4-2022-10-11-798caa840
endheader
time	elv_angle	shoulder_elv	shoulder_rot	elbow_flexion	pro_sup	deviation	flexion
2.4020851434	0.0000000000	0.6806784083	0.0000000000	1.6580627894	0.0000000000	0.0000000000	0.0000000000
2.4062554301	0.0000000000	0.6806784083	0.0000000000	1.6580627894	0.0000000000	0.0000000000	0.0000000000
2.4104257168	0.0000000000	0.6806784083	0.0000000000	1.6580627894	0.0000000000	0.0000000000	0.0000000000
2.4145960035	0.0000000000	0.6806784083	0.0000000000	1.6580627894	0.0000000000	0.0000000000	0.0000000000
2.4187662902	0.0000000000	0.6806784083	0.0000000000	1.6580627894	0.0000000000	0.0000000000	0.0000000000
2.4229365769	0.0000000000	0.6806784083	0.0000000000	1.6580627894	0.0000000000	0.0000000000	0.0000000000
2.4271068636	0.0000000000	0.6806784083	0.0000000000	1.6580627894	0.0000000000	0.0000000000	0.0000000000
2.4312771503	0.0000000000	0.6806784083	0.0000000000	1.6580627894	0.0000000000	0.0000000000	0.0000000000
2.4354474370	0.0000000000	0.6806784083	0.0000000000	1.6580627894	0.0000000000	0.0000000000	0.0000000000
2.4396177237	0.0000000000	0.6806784083	0.0000000000	1.6580627894	0.0000000000	0.0000000000	0.0000000000
2.4437880104	0.0000000000	0.6806784083	0.0000000000	1.6580627894	0.0000000000	0.0000000000	0.0000000000
2.4479582971	0.0000000000	0.6806784083	0.0000000000	1.6580627894	0.0000000000	0.0000000000	0.0000000000
2.4521285838	0.0000000000	0.6806784083	0.0000000000	1.6580627894	0.0000000000	0.0000000000	0.0000000000
2.4562988705	0.0000000000	0.6806784083	0.0000000000	1.6580627894	0.0000000000	0.0000000000	0.0000000000
2.4604691573	0.0000000000	0.6806784083	0.0000000000	1.6580627894	0.0000000000	0.0000000000	0.0000000000
2.4646394440	0.0000000000	0.6806784083	0.0000000000	1.6580627894	0.0000000000	0.0000000000	0.0000000000
2.4688097307	0.0000000000	0.6806784083	0.0000000000	1.6580627894	0.0000000000	0.0000000000	0.0000000000
2.4729800174	0.0000000000	0.6806784083	0.0000000000	1.6580627894	0.0000000000	0.0000000000	0.0000000000
2.4771503041	0.0000000000	0.6806784083	0.0000000000	1.6580627894	0.0000000000	0.0000000000	0.0000000000
2.4813205908	0.0000000000	0.6806784083	0.0000000000	1.6580627894	0.0000000000	0.0000000000	0.0000000000
2.4854908775	0.0000000000	0.6806784083	0.0000000000	1.6580627894	0.0000000000	0.0000000000	0.0000000000
2.4896611642	0.0000000000	0.6806784083	0.0000000000	1.6580627894	0.0000000000	0.0000000000	0.0000000000
2.4938314509	0.0000000000	0.6806784083	0.0000000000	1.6580627894	0.0000000000	0.0000000000	0.0000000000
2.4980017376	0.0000000000	0.6806784083	0.0000000000	1.6580627894	0.0000000000	0.0000000000	0.0000000000
2.5021720243	0.0000000000	0.6806784083	0.0000000000	1.6580627894	0.0000000000	0.0000000000	0.0000000000
2.5063423110	0.0000000000	0.6806784083	0.0000000000	1.6580627894	0.0000000000	0.0000000000	0.0000000000
2.5105125977	0.0000000000	0.6806784083	0.0000000000	1.6580627894	0.0000000000	0.0000000000	0.0000000000
2.5146828844	0.0000000000	0.6806784083	0.0000000000	1.6580627894	0.0000000000	0.0000000000	0.0000000000
2.5188531712	0.0000000000	0.6806784083	0.0000000000	1.6580627894	0.0000000000	0.0000000000	0.0000000000
2.5230234579	0.0000000000	0.6806784083	0.0000000000	1.6580627894	0.0000000000	0.0000000000	0.0000000000
2.5271937446	0.0000000000	0.6806784083	0.0000000000	1.6580627894	0.0000000000	0.0000000000	0.0000000000
2.5313640313	0.0000000000	0.6806784083	0.0000000000	1.6580627894	0.0000000000	0.0000000000	0.0000000000
2.5355343180	0.0000000000	0.6806784083	0.0000000000	1.6580627894	0.0000000000	0.0000000000	0.0000000000
2.5397046047	0.0000000000	0.6806784083	0.0000000000	1.6580627894	0.0000000000	0.0000000000	0.0000000000
2.5438748914	0.0000000000	0.6806784083	0.0000000000	1.6580627894	0.0000000000	0.0000000000	0.0000000000
2.5480451781	0.0000000000	0.6806784083	0.0000000000	1.6580627894	0.0000000000	0.0000000000	0.0000000000
2.5522154648	0.0000000000	0.6806784083	0.0000000000	1.6580627894	0.0000000000	0.0000000000	0.0000000000
2.5563857515	0.0000000000	0.6806784083	0.0000000000	1.6580627894	0.0000000000	0.0000000000	0.0000000000
2.5605560382	0.0000000000	0.6806784083	0.0000000000	1.6580627894	0.0000000000	0.0000000000	0.0000000000
2.5647263249	0.0000000000	0.6806784083	0.0000000000	1.6580627894	0.0000000000	0.0000000000	0.0000000000
2.5688966116	0.0000000000	0.6806784083	0.0000000000	1.6580627894	0.0000000000	0.0000000000	0.0000000000
2.5730668983	0.0000000000	0.6806784083	0.0000000000	1.6580627894	0.0000000000	0.0000000000	0.0000000000
2.5772371851	0.0000000000	0.6806784083	0.0000000000	1.6580627894	0.0000000000	0.0000000000	0.0000000000
2.5814074718	0.0000000000	0.6806784083	0.0000000000	1.6580627894	0.0000000000	0.0000000000	0.0000000000
2.5855777585	0.0000000000	0.6806784083	0.0000000000	1.6580627894	0.0000000000	0.0000000000	0.0000000000
2.5897480452	0.0000000000	0.6806784083	0.0000000000	1.6580627894	0.0000000000	0.0000000000	0.0000000000
2.5939183319	0.0000000000	0.6806784083	0.0000000000	1.6580627894	0.0000000000	0.0000000000	0.0000000000
2.5980886186	0.0000000000	0.6806784083	0.0000000000	1.6580627894	0.0000000000	0.0000000000	0.0000000000
2.6022589053	0.0000000000	0.6806784083	0.0000000000	1.6580627894	0.0000000000	0.0000000000	0.0000000000
2.6064291920	0.0000000000	0.6806784083	0.0000000000	1.6580627894	0.0000000000	0.0000000000	0.0000000000
2.6105994787	0.0000000000	0.6806784083	0.0000000000	1.6580627894	0.0000000000	0.0000000000	0.0000000000
2.6147697654	0.0000000000	0.6806784083	0.0000000000	1.6580627894	0.0000000000	0.0000000000	0.0000000000
2.6189400521	0.0000000000	0.6806784083	0.0000000000	1.6580627894	0.0000000000	0.0000000000	0.0000000000
2.6231103388	0.0000000000	0.6806784083	0.0000000000	1.6580627894	0.0000000000	0.0000000000	0.0000000000
2.6272806255	0.0000000000	0.6806784083	0.0000000000	1.6580627894	0.0000000000	0.0000000000	0.0000000000
2.6314509123	0.0000000000	0.6806784083	0.0000000000	1.6580627894	0.0000000000	0.0000000000	0.0000000000
2.6356211990	0.0000000000	0.6806784083	0.0000000000	1.6580627894	0.0000000000	0.0000000000	0.0000000000
2.6397914857	0.0000000000	0.6806784083	0.0000000000	1.6580627894	0.0000000000	0.0000000000	0.0000000000
2.6439617724	0.0000000000	0.6806784083	0.0000000000	1.6580627894	0.0000000000	0.0000000000	0.0000000000
2.6481320591	0.0000000000	0.6806784083	0.0000000000	1.6580627894	0.0000000000	0.0000000000	0.0000000000
2.6523023458	0.0000000000	0.6806784083	0.0000000000	1.6580627894	0.0000000000	0.0000000000	0.0000000000
2.6564726325	0.0000000000	0.6806774879	0.0000000000	1.6580622780	0.0000000000	0.0000000000	0.0000000000
2.6606429192	0.0000000000	0.6806711379	0.0000000000	1.6580587503	0.0000000000	0.0000000000	0.0000000000
2.6648132059	0.0000000000	0.6806541827	0.0000000000	1.6580493308	0.0000000000	0.0000000000	0.0000000000
2.6689834926	0.0000000000	0.6806217191	0.0000000000	1.6580312954	0.0000000000	0.0000000000	0.0000000000
2.6731537793	0.0000000000	0.6805691114	0.0000000000	1.6580020689	0.0000000000	0.0000000000	0.0000000000
2.6773240660	0.0000000000	0.6804919874	0.0000000000	1.6579592222	0.0000000000	0.0000000000	0.0000000000
2.6814943527	0.0000000000	0.6803862329	0.0000000000	1.6579004697	0.0000000000	0.0000000000	0.0000000000
2.6856646394	0.0000000000	0.6802479872	0.0000000000	1.6578236666	0.0000000000	0.0000000000	0.0000000000
2.6898349262	0.0000000000	0.6800736386	0.0000000000	1.6577268063	0.0000000000	0.0000000000	0.0000000000
2.6940052129	0.0000000000	0.6798598195	0.0000000000	1.6576080179	0.0000000000	0.0000000000	0.0000000000
2.6981754996	0.0000000000	0.6796034014	0.0000000000	1.6574655634	0.0000000000	0.0000000000	0.0000000000
2.7023457863	0.0000000000	0.6793014907	0.0000000000	1.6572978352	0.0000000000	0.0000000000	0.0000000000
2.7065160730	0.0000000000	0.6789514233	0.0000000000	1.6571033533	0.0000000000	0.0000000000	0.0000000000
2.7106863597	0.0000000000	0.6785507606	0.0000000000	1.6568807629	0.0000000000	0.0000000000	0.0000000000
2.7148566464	0.0000000000	0.6780972840	0.0000000000	1.6566288315	0.0000000000	0.0000000000	0.0000000000
2.7190269331	0.0000000000	0.6775889910	0.0000000000	1.6563464464	0.0000000000	0.0000000000	0.0000000000
2.7231972198	0.0000000000	0.6770240895	0.0000000000	1.6560326123	0.0000000000	0.0000000000	0.0000000000
2.7273675065	0.0000000000	0.6764009938	0.0000000000	1.6556864480	0.0000000000	0.0000000000	0.0000000000
2.7315377932	0.0000000000	0.6757183198	0.0000000000	1.6553071847	0.0000000000	0.0000000000	0.0000000000
2.7357080799	0.0000000000	0.6749748798	0.0000000000	1.6548941625	0.0000000000	0.0000000000	0.0000000000
2.7398783666	0.0000000000	0.6741696782	0.0000000000	1.6544468282	0.0000000000	0.0000000000	0.0000000000
2.7440486533	0.0000000000	0.6733019064	0.0000000000	1.6539647328	0.0000000000	0.0000000000	0.0000000000
2.7482189401	0.0000000000	0.6723709385	0.0000000000	1.6534475284	0.0000000000	0.0000000000	0.0000000000
2.7523892268	0.0000000000	0.6713763263	0.0000000000	1.6528949661	0.0000000000	0.0000000000	0.0000000000
2.7565595135	0.0000000000	0.6703177944	0.0000000000	1.6523068928	0.0000000000	0.0000000000	0.0000000000
2.7607298002	0.0000000000	0.6691952359	0.0000000000	1.6516832492	0.0000000000	0.0000000000	0.0000000000
2.7649000869	0.0000000000	0.6680087072	0.0000000000	1.6510240666	0.0000000000	0.0000000000	0.0000000000
2.7690703736	0.0000000000	0.6667584236	0.0000000000	1.6503294646	0.0000000000	0.0000000000	0.0000000000
2.7732406603	0.0000000000	0.6654447543	0.0000000000	1.6495996483	0.0000000000	0.0000000000	0.0000000000
2.7774109470	0.0000000000	0.6640682179	0.0000000000	1.6488349058	0.0000000000	0.0000000000	0.0000000000
2.7815812337	0.0000000000	0.6626294775	0.0000000000	1.6480356056	0.0000000000	0.0000000000	0.0000000000
2.7857515204	0.0000000000	0.6611293360	0.0000000000	1.6472021937	0.0000000000	0.0000000000	0.0000000000
2.7899218071	0.0000000000	0.6595687314	0.0000000000	1.6463351912	0.0000000000	0.0000000000	0.0000000000
2.7940920938	0.0000000000	0.6579487322	0.0000000000	1.6454351915	0.0000000000	0.0000000000	0.0000000000
2.7982623805	0.0000000000	0.6562705320	0.0000000000	1.6445028581	0.0000000000	0.0000000000	0.0000000000
2.8024326672	0.0000000000	0.6545354458	0.0000000000	1.6435389214	0.0000000000	0.0000000000	0.0000000000
2.8066029540	0.0000000000	0.6527449045	0.0000000000	1.6425441762	0.0000000000	0.0000000000	0.0000000000
2.8107732407	0.0000000000	0.6509004502	0.0000000000	1.6415194793	0.0000000000	0.0000000000	0.0000000000
2.8149435274	0.0000000000	0.6490037319	0.0000000000	1.6404657469	0.0000000000	0.0000000000	0.0000000000
2.8191138141	0.0000000000	0.6470565003	0.0000000000	1.6393839516	0.0000000000	0.0000000000	0.0000000000
2.8232841008	0.0000000000	0.6450606035	0.0000000000	1.6382751201	0.0000000000	0.0000000000	0.0000000000
2.8274543875	0.0000000000	0.6430179817	0.0000000000	1.6371403302	0.0000000000	0.0000000000	0.0000000000
2.8316246742	0.0000000000	0.6409306631	0.0000000000	1.6359807087	0.0000000000	0.0000000000	0.0000000000
2.8357949609	0.0000000000	0.6388007586	0.0000000000	1.6347974284	0.0000000000	0.0000000000	0.0000000000
